<svg width="420" height="140" viewBox="0 0 420 140" fill="none" xmlns="http://www.w3.org/2000/svg">
  <defs>
    <filter id="ridemax-shadow-light" x="0" y="0" width="420" height="140" filterUnits="userSpaceOnUse" color-interpolation-filters="sRGB">
      <feDropShadow dx="0" dy="10" stdDeviation="10" flood-color="#000000" flood-opacity="0.22" />
    </filter>
  </defs>
  <g filter="url(#ridemax-shadow-light)">
    <circle cx="70" cy="70" r="48" fill="#FFFFFF" fill-opacity="0.1" />
    <circle cx="70" cy="70" r="54" stroke="#FFFFFF" stroke-width="6" />
    <path d="M42 71L57 48L68 62L78 41L98 71H42Z" fill="#FFFFFF" />
    <path d="M48 84C56 74 64 69 72 69C80 69 88 74 96 84" stroke="#FFFFFF" stroke-width="5" stroke-linecap="round" />
    <path d="M51 92C58 88 64 86 70 86C76 86 82 88 89 92" stroke="#FF6A63" stroke-width="4" stroke-linecap="round" />
    <text x="128" y="34" fill="#FFFFFF" font-family="Arial, Helvetica, sans-serif" font-size="16" font-weight="700" letter-spacing="5">TEAM</text>
    <text x="126" y="88" fill="#FFFFFF" font-family="Arial Black, Arial, Helvetica, sans-serif" font-size="58" font-weight="900" letter-spacing="1">RIDE</text>
    <text x="270" y="88" fill="#FF6A63" font-family="Arial Black, Arial, Helvetica, sans-serif" font-size="58" font-weight="900" letter-spacing="1">MAX</text>
    <rect x="274" y="99" width="114" height="24" rx="12" fill="#FFFFFF" fill-opacity="0.14" stroke="#FFFFFF" stroke-opacity="0.28" />
    <text x="291" y="116" fill="#FFFFFF" font-family="Arial, Helvetica, sans-serif" font-size="12" font-weight="700" letter-spacing="2">PHILIPPINES</text>
  </g>
</svg>
